<?xml version="1.0" standalone="no"?>
<!DOCTYPE svg PUBLIC "-//W3C//DTD SVG 20010904//EN"
 "http://www.w3.org/TR/2001/REC-SVG-20010904/DTD/svg10.dtd">
<svg version="1.0" xmlns="http://www.w3.org/2000/svg"
 width="512.000000pt" height="512.000000pt" viewBox="0 0 512.000000 512.000000"
 preserveAspectRatio="xMidYMid meet">
<metadata>
Created by potrace 1.14, written by Peter Selinger 2001-2017
</metadata>
<g transform="translate(0.000000,512.000000) scale(0.100000,-0.100000)"
fill="#000000" stroke="none">
<path d="M662 4385 c-34 -8 -86 -27 -115 -44 -63 -36 -156 -130 -186 -189 -52
-103 -51 -66 -51 -1327 0 -1003 -2 -1178 -15 -1221 -11 -37 -49 -91 -155 -222
l-140 -174 0 -126 c0 -112 3 -133 24 -177 29 -63 107 -136 171 -161 49 -19
107 -19 2365 -19 2258 0 2316 0 2365 19 64 25 142 98 171 161 21 44 24 65 24
177 l0 127 -129 158 c-70 88 -137 174 -147 193 -18 34 -19 85 -24 1250 l-5
1215 -23 60 c-61 163 -198 279 -359 305 -35 6 -770 10 -1883 9 -1502 0 -1836
-3 -1888 -14z m3688 -1373 c0 -511 3 -1024 7 -1140 l6 -212 -1796 0 -1797 0 0
1140 0 1140 1790 0 1790 0 0 -928z m-1313 -1858 c-6 -55 -31 -93 -78 -116 -30
-16 -71 -18 -394 -18 -335 0 -363 2 -403 20 -33 15 -47 29 -62 62 -11 24 -20
55 -20 71 l0 27 481 0 482 0 -6 -46z"/>
<path d="M1550 3570 c-27 -27 -25 -62 3 -88 21 -20 34 -22 139 -22 102 0 117
-2 122 -17 3 -10 59 -211 126 -448 66 -236 123 -438 126 -447 3 -12 -5 -22
-27 -33 -63 -33 -118 -117 -119 -180 0 -87 69 -183 147 -204 l38 -10 0 -64 c0
-74 25 -120 89 -165 33 -23 49 -27 107 -27 59 0 73 4 111 30 60 43 88 96 88
168 l0 57 104 0 104 0 -5 -40 c-11 -77 55 -181 133 -210 101 -39 235 34 264
141 29 107 -46 224 -159 248 -33 7 -194 11 -442 11 -250 0 -397 4 -410 10 -13
7 -19 21 -19 45 0 68 -21 65 513 65 507 1 530 3 579 47 39 35 59 96 138 419
87 359 88 370 36 438 -51 68 -42 67 -716 64 -333 -2 -612 -7 -621 -11 -14 -7
-21 8 -45 95 -42 150 -38 148 -229 148 -142 0 -157 -2 -175 -20z m640 -362 c1
-7 7 -39 14 -70 l14 -58 -77 0 -77 0 -12 45 c-23 88 -20 92 81 94 39 1 57 -3
57 -11z m380 -58 l0 -71 -102 3 -103 3 -11 50 c-22 91 -29 85 101 85 l115 0 0
-70z m376 53 c-2 -10 -7 -34 -11 -53 -14 -74 -6 -70 -121 -70 l-104 0 0 70 0
70 121 0 c110 0 120 -2 115 -17z m262 11 c25 -7 27 -24 11 -90 l-11 -44 -70 0
-70 0 7 33 c22 106 22 107 68 107 23 0 52 -3 65 -6z m-955 -301 c3 -10 8 -31
12 -48 3 -16 8 -38 11 -47 5 -16 -3 -18 -64 -18 l-69 0 -16 60 c-10 33 -17 62
-17 65 0 3 31 5 69 5 58 0 70 -3 74 -17z m317 -48 l0 -66 -72 3 -72 3 -12 55
c-7 30 -13 58 -14 63 0 4 38 7 85 7 l85 0 0 -65z m314 38 c-3 -16 -10 -45 -15
-65 l-10 -38 -74 0 -75 0 0 65 0 65 90 0 90 0 -6 -27z m282 10 c-3 -10 -10
-39 -17 -65 l-11 -48 -65 0 c-57 0 -64 2 -59 18 3 9 8 35 12 57 4 22 9 43 11
48 2 4 33 7 69 7 58 0 65 -2 60 -17z m-850 -280 c3 -16 10 -43 14 -61 l9 -33
-61 3 -61 3 -13 45 c-21 70 -21 70 46 70 57 0 60 -1 66 -27z m254 -33 l0 -60
-44 0 c-42 0 -44 1 -50 38 -3 20 -9 47 -12 60 -6 21 -4 22 50 22 l56 0 0 -60z
m257 38 c-3 -13 -9 -40 -12 -60 -7 -38 -7 -38 -56 -38 l-49 0 0 60 0 60 61 0
c58 0 61 -1 56 -22z m273 15 c0 -5 -6 -30 -13 -58 l-13 -50 -58 -3 -58 -3 7
47 c11 74 11 74 76 74 32 0 59 -3 59 -7z m-760 -553 c34 -34 20 -80 -27 -95
-17 -4 -30 1 -48 20 -19 18 -24 31 -20 48 15 47 61 61 95 27z m604 1 c44 -48
-15 -122 -70 -87 -45 30 -24 106 30 106 13 0 31 -9 40 -19z"/>
</g>
</svg>
